<?xml version="1.0" encoding="UTF-8" standalone="no"?>
<svg
   xmlns:dc="http://purl.org/dc/elements/1.1/"
   xmlns:cc="http://creativecommons.org/ns#"
   xmlns:rdf="http://www.w3.org/1999/02/22-rdf-syntax-ns#"
   xmlns:svg="http://www.w3.org/2000/svg"
   xmlns="http://www.w3.org/2000/svg"
   xmlns:sodipodi="http://sodipodi.sourceforge.net/DTD/sodipodi-0.dtd"
   xmlns:inkscape="http://www.inkscape.org/namespaces/inkscape"
   fill="#000000"
   height="48"
   viewBox="0 0 24 24"
   width="48"
   id="svg3031"
   version="1.1"
   inkscape:version="0.48.5 r10040"
   sodipodi:docname="search_btn.svg">
  <metadata
     id="metadata3041">
    <rdf:RDF>
      <cc:Work
         rdf:about="">
        <dc:format>image/svg+xml</dc:format>
        <dc:type
           rdf:resource="http://purl.org/dc/dcmitype/StillImage" />
        <dc:title></dc:title>
      </cc:Work>
    </rdf:RDF>
  </metadata>
  <defs
     id="defs3039">
    <filter
       inkscape:collect="always"
       id="filter4038">
      <feGaussianBlur
         inkscape:collect="always"
         stdDeviation="0.85571432"
         id="feGaussianBlur4040" />
    </filter>
  </defs>
  <sodipodi:namedview
     pagecolor="#ffffff"
     bordercolor="#666666"
     borderopacity="1"
     objecttolerance="10"
     gridtolerance="10"
     guidetolerance="10"
     inkscape:pageopacity="0"
     inkscape:pageshadow="2"
     inkscape:window-width="1858"
     inkscape:window-height="1057"
     id="namedview3037"
     showgrid="false"
     inkscape:zoom="12.374369"
     inkscape:cx="27.165694"
     inkscape:cy="22.574741"
     inkscape:window-x="-8"
     inkscape:window-y="-8"
     inkscape:window-maximized="1"
     inkscape:current-layer="svg3031" />
  <path
     style="opacity:0.51539827;fill:#000000;fill-rule:evenodd;stroke:#ffffff;stroke-width:1.31553173px;stroke-linecap:butt;stroke-linejoin:miter;stroke-opacity:1;filter:url(#filter4038)"
     d="M 23.71875 2.125 C 11.86089 2.7299413 2.40625 12.603055 2.40625 24.6875 C 2.40625 37.161765 12.449184 47.28125 24.84375 47.28125 C 37.238316 47.28125 47.3125 37.161765 47.3125 24.6875 C 47.3125 12.213235 37.238316 2.125 24.84375 2.125 C 24.45642 2.125 24.101262 2.1054858 23.71875 2.125 z "
     transform="scale(0.5,0.5)"
     id="path3156" />
  <path
     sodipodi:type="arc"
     style="fill:#ffffff;fill-rule:evenodd;stroke:#ffffff;stroke-width:1px;stroke-linecap:butt;stroke-linejoin:miter;stroke-opacity:1"
     id="path3150"
     sodipodi:cx="23"
     sodipodi:cy="25.457144"
     sodipodi:rx="17.114286"
     sodipodi:ry="17.114286"
     d="m 40.114286,25.457144 a 17.114286,17.114286 0 1 1 -34.2285724,0 17.114286,17.114286 0 1 1 34.2285724,0 z"
     transform="matrix(0.62489861,0,0,0.62489861,-2.3369536,-3.8724193)" />
  <path
     d="M0 0h24v24H0z"
     fill="none"
     id="path3033" />
  <path
     inkscape:connector-curvature="0"
     d="m 11.113137,17.321177 h 1.773726 v -1.773725 h -1.773726 v 1.773725 z M 12,3.1313709 c -4.8954833,0 -8.8686292,3.9731459 -8.8686292,8.8686291 0,4.895483 3.9731459,8.868629 8.8686292,8.868629 4.895483,0 8.868629,-3.973146 8.868629,-8.868629 C 20.868629,7.1045168 16.895483,3.1313709 12,3.1313709 z M 12,19.094903 C 8.0889345,19.094903 4.9050967,15.911065 4.9050967,12 4.9050967,8.0889346 8.0889345,4.9050968 12,4.9050968 c 3.911065,0 7.094903,3.1838378 7.094903,7.0949032 0,3.911065 -3.183838,7.094903 -7.094903,7.094903 z M 12,6.6788226 c -1.959967,0 -3.5474517,1.5874846 -3.5474517,3.5474514 h 1.7737257 c 0,-0.9755489 0.798177,-1.7737256 1.773726,-1.7737256 0.975549,0 1.773726,0.7981767 1.773726,1.7737256 0,1.773726 -2.660589,1.55201 -2.660589,4.434315 h 1.773726 c 0,-1.995442 2.660589,-2.217158 2.660589,-4.434315 0,-1.9599668 -1.587485,-3.5474514 -3.547452,-3.5474514 z"
     id="path4762"
     style="fill:#757575;fill-opacity:1" />
</svg>
