<?xml version="1.0" encoding="UTF-8" standalone="no"?>
<svg
   xmlns:dc="http://purl.org/dc/elements/1.1/"
   xmlns:cc="http://creativecommons.org/ns#"
   xmlns:rdf="http://www.w3.org/1999/02/22-rdf-syntax-ns#"
   xmlns:svg="http://www.w3.org/2000/svg"
   xmlns="http://www.w3.org/2000/svg"
   xmlns:sodipodi="http://sodipodi.sourceforge.net/DTD/sodipodi-0.dtd"
   xmlns:inkscape="http://www.inkscape.org/namespaces/inkscape"
   fill="#000000"
   height="48"
   viewBox="0 0 24 24"
   width="48"
   id="svg3031"
   version="1.1"
   inkscape:version="0.48.5 r10040"
   sodipodi:docname="line_btn.svg">
  <metadata
     id="metadata3041">
    <rdf:RDF>
      <cc:Work
         rdf:about="">
        <dc:format>image/svg+xml</dc:format>
        <dc:type
           rdf:resource="http://purl.org/dc/dcmitype/StillImage" />
        <dc:title></dc:title>
      </cc:Work>
    </rdf:RDF>
  </metadata>
  <defs
     id="defs3039">
    <filter
       inkscape:collect="always"
       id="filter4038">
      <feGaussianBlur
         inkscape:collect="always"
         stdDeviation="0.85571432"
         id="feGaussianBlur4040" />
    </filter>
  </defs>
  <sodipodi:namedview
     pagecolor="#ffffff"
     bordercolor="#666666"
     borderopacity="1"
     objecttolerance="10"
     gridtolerance="10"
     guidetolerance="10"
     inkscape:pageopacity="0"
     inkscape:pageshadow="2"
     inkscape:window-width="1858"
     inkscape:window-height="1057"
     id="namedview3037"
     showgrid="false"
     inkscape:zoom="12.374369"
     inkscape:cx="27.165694"
     inkscape:cy="22.574741"
     inkscape:window-x="-8"
     inkscape:window-y="-8"
     inkscape:window-maximized="1"
     inkscape:current-layer="svg3031" />
  <path
     style="opacity:0.51539827;fill:#000000;fill-rule:evenodd;stroke:#ffffff;stroke-width:1.31553173px;stroke-linecap:butt;stroke-linejoin:miter;stroke-opacity:1;filter:url(#filter4038)"
     d="M 23.71875 2.125 C 11.86089 2.7299413 2.40625 12.603055 2.40625 24.6875 C 2.40625 37.161765 12.449184 47.28125 24.84375 47.28125 C 37.238316 47.28125 47.3125 37.161765 47.3125 24.6875 C 47.3125 12.213235 37.238316 2.125 24.84375 2.125 C 24.45642 2.125 24.101262 2.1054858 23.71875 2.125 z "
     transform="scale(0.5,0.5)"
     id="path3156" />
  <path
     sodipodi:type="arc"
     style="fill:#ffffff;fill-rule:evenodd;stroke:#ffffff;stroke-width:1px;stroke-linecap:butt;stroke-linejoin:miter;stroke-opacity:1"
     id="path3150"
     sodipodi:cx="23"
     sodipodi:cy="25.457144"
     sodipodi:rx="17.114286"
     sodipodi:ry="17.114286"
     d="m 40.114286,25.457144 a 17.114286,17.114286 0 1 1 -34.2285724,0 17.114286,17.114286 0 1 1 34.2285724,0 z"
     transform="matrix(0.62489861,0,0,0.62489861,-2.3369536,-3.8724193)" />
  <path
     d="M0 0h24v24H0z"
     fill="none"
     id="path3033" />
  <path
     inkscape:connector-curvature="0"
     d="m 12,8.5877249 c -1.885282,0 -3.4122747,1.5269921 -3.4122747,3.4122751 0,1.885282 1.5269927,3.412275 3.4122747,3.412275 1.885282,0 3.412275,-1.526993 3.412275,-3.412275 0,-1.885283 -1.526993,-3.4122751 -3.412275,-3.4122751 z m 7.626434,2.5592071 C 19.234022,7.5896345 16.410366,4.7659771 12.853068,4.3735654 V 2.6162438 H 11.146932 V 4.3735654 C 7.5896349,4.7659771 4.7659774,7.5896345 4.3735658,11.146932 H 2.6162442 v 1.706136 h 1.7573216 c 0.3924116,3.557298 3.2160691,6.380954 6.7733662,6.773366 v 1.757322 h 1.706136 v -1.757322 c 3.557298,-0.392412 6.380954,-3.216068 6.773366,-6.773366 h 1.757322 V 11.146932 H 19.626434 z M 12,17.971481 C 8.6986242,17.971481 6.0285192,15.301376 6.0285192,12 6.0285192,8.6986238 8.6986242,6.0285188 12,6.0285188 c 3.301376,0 5.971481,2.670105 5.971481,5.9714812 0,3.301376 -2.670105,5.971481 -5.971481,5.971481 z"
     id="path4439"
     style="fill:#757575;fill-opacity:1" />
</svg>
